# xmcd CD database file
#
# Track frame offsets:
#	150
#	13135
#	56545
#	69075
#	86533
#	96843
#	121058
#	129578
#	156160
#	173273
#
# Disc length: 2478 seconds
#
# Revision: 0
# Processed by: cddbd v1.5.1PL2 Copyright (c) Steve Scherf et al.
# Submitted via: Feurio! 1.68 - http://www.feurio.com
#
DISCID=7009ac0a
DTITLE=Werner Widmer - Blues Comics
DYEAR=1900
DGENRE=Mundart
TTITLE0=Sunntigsbrate
TTITLE1=LEGO Blues
TTITLE2=Tschu Tschu
TTITLE3=Herrmann
TTITLE4=Lecker
TTITLE5=Mäntigmoorge
TTITLE6=Maschine
TTITLE7=I wär so gern
TTITLE8=S' Marieli
TTITLE9=Tschüss
EXTD=
EXTT0=
EXTT1=
EXTT2=
EXTT3=
EXTT4=
EXTT5=
EXTT6=
EXTT7=
EXTT8=
EXTT9=
PLAYORDER=
